<svg version="1.1" id="Layer_1" xmlns="http://www.w3.org/2000/svg" xmlns:xlink="http://www.w3.org/1999/xlink" x="0px" y="0px"
	 width="100%" viewBox="0 0 1024 1024" enable-background="new 0 0 1024 1024" xml:space="preserve">
<path fill="#000000" opacity="1.000000" stroke="none" 
	d="
M765.270142,552.785278 
	C764.073364,551.199707 763.402283,549.594604 761.302673,548.711548 
	C757.792053,551.592773 755.647095,555.757385 753.044067,559.499268 
	C747.717773,567.155945 742.564697,574.933289 737.360962,582.674744 
	C736.030762,584.653809 734.710205,586.422668 731.913574,586.409729 
	C714.584229,586.329468 697.254578,586.333069 679.925049,586.280823 
	C679.300659,586.278931 678.677246,585.984985 678.129639,585.846375 
	C677.382080,583.670898 679.012634,582.606934 679.911255,581.324341 
	C715.565369,530.432922 751.111816,479.467743 785.335999,427.596344 
	C786.878479,425.258423 788.347656,423.545959 791.573364,423.540710 
	C807.897156,423.514160 824.220398,423.253876 840.544189,423.110352 
	C842.156799,423.096191 843.922852,422.745087 845.172424,424.294159 
	C845.516296,426.418365 843.927185,427.684479 842.935608,429.129669 
	C826.348206,453.303467 809.800293,477.505554 792.987061,501.521790 
	C790.581482,504.957916 792.114258,506.921936 793.832153,509.424133 
	C809.956238,532.908691 826.071533,556.399170 842.150879,579.914307 
	C843.243042,581.511536 844.847107,582.924866 844.727661,585.658997 
	C841.381165,586.997620 837.707214,586.426880 834.196472,586.450684 
	C820.367065,586.544678 806.535400,586.320618 792.706543,586.439575 
	C789.294617,586.468872 787.200256,585.263855 785.351624,582.460327 
	C778.840942,572.586853 772.114929,562.855408 765.270142,552.785278 
z"/>
<path fill="#000000" opacity="1.000000" stroke="none" 
	d="
M617.451599,585.841675 
	C600.591553,581.076233 586.577637,571.730591 572.485596,562.514526 
	C570.364868,561.127625 569.898865,559.267578 569.900452,556.973083 
	C569.930237,513.815125 569.962280,470.657104 569.901855,427.499237 
	C569.896545,423.714355 571.514099,422.598053 575.053772,422.687897 
	C581.881348,422.861237 588.724121,422.935699 595.545593,422.668335 
	C599.765747,422.502899 601.039246,424.150299 600.998413,428.204193 
	C600.864258,441.532684 600.997986,454.864166 601.071655,468.194244 
	C601.085266,470.663147 600.783325,473.177307 601.665710,475.629364 
	C603.847046,476.228638 605.080627,474.565460 606.531555,473.628296 
	C625.694336,461.251373 653.389465,462.183105 671.445618,475.961823 
	C684.961304,486.275635 691.788574,500.471497 693.765381,516.934692 
	C696.121094,536.553101 692.723816,555.019409 678.789490,569.967590 
	C661.999084,587.979675 641.049500,591.656189 617.451599,585.841675 
M661.329407,514.274841 
	C652.859680,488.865601 621.377258,486.192627 607.458008,503.381744 
	C600.420349,512.072693 599.515442,522.154419 600.371826,532.655090 
	C601.408447,545.367004 611.176208,556.981445 623.226929,560.108032 
	C636.302856,563.500488 649.559875,558.721741 657.046814,547.615295 
	C663.827759,537.556274 664.315674,526.493103 661.329407,514.274841 
z"/>
<path fill="#000000" opacity="1.000000" stroke="none" 
	d="
M398.948059,580.050781 
	C382.436371,589.001221 365.330841,590.582458 347.788940,585.792419 
	C318.414398,577.771301 303.060852,553.516724 304.049591,524.770996 
	C304.922455,499.394653 316.745422,480.434113 340.399719,470.288666 
	C367.187836,458.799103 401.281738,465.391510 417.598297,491.296783 
	C425.758179,504.251892 427.795319,518.512085 426.250549,533.507019 
	C425.823669,537.650635 422.986542,537.398376 420.074738,537.396973 
	C394.080536,537.384888 368.086365,537.392395 342.092163,537.401917 
	C334.478119,537.404724 333.929260,538.405579 337.153320,545.283081 
	C343.586304,559.005981 358.781616,563.671387 372.052490,562.305786 
	C381.501373,561.333435 389.659424,557.511414 396.363922,550.755005 
	C397.920959,549.185913 399.254608,548.785156 401.041260,550.373169 
	C405.772461,554.578552 410.535065,558.750671 415.364288,562.842651 
	C417.591827,564.730042 416.655548,566.163025 415.106110,567.806702 
	C410.488190,572.705139 405.170685,576.664673 398.948059,580.050781 
M385.666229,496.808838 
	C384.565033,496.065521 383.503448,495.253967 382.356750,494.589142 
	C365.160522,484.618744 342.816101,492.250854 336.297638,510.222137 
	C334.997925,513.805420 335.006042,515.829041 339.748505,515.791504 
	C357.029541,515.654663 374.312683,515.690002 391.594299,515.786743 
	C395.509064,515.808655 396.052063,514.195190 395.067871,510.821228 
	C393.475952,505.363922 390.510406,500.907166 385.666229,496.808838 
z"/>
<path fill="#000000" opacity="1.000000" stroke="none" 
	d="
M261.260986,498.000061 
	C261.255554,525.497375 261.256683,552.494690 261.240723,579.492004 
	C261.236786,586.159790 261.160248,586.225159 254.578323,586.234619 
	C248.078995,586.244019 241.569000,585.991516 235.083801,586.290405 
	C230.315796,586.510132 228.746185,584.849426 228.768906,580.002014 
	C228.950226,541.339966 228.896194,502.676788 228.907440,464.013977 
	C228.910019,455.163513 228.897827,455.167908 219.911789,455.174866 
	C208.079666,455.184052 196.246201,455.086823 184.416168,455.246948 
	C180.602692,455.298584 178.917313,454.007080 179.014328,450.074768 
	C179.166397,443.913147 179.079132,437.743530 178.988281,431.578857 
	C178.939133,428.243195 180.305664,426.802002 183.756943,426.806580 
	C224.752609,426.860596 265.748413,426.856934 306.744080,426.785126 
	C310.201477,426.779083 311.483093,428.089630 311.389404,431.513702 
	C311.220917,437.675079 311.157043,443.851776 311.406189,450.007629 
	C311.565186,453.936646 310.116547,455.286804 306.227814,455.241791 
	C293.230988,455.091309 280.228424,455.351501 267.234100,455.117096 
	C262.754669,455.036346 261.053772,456.286407 261.165710,461.006195 
	C261.454041,473.164734 261.261597,485.334656 261.260986,498.000061 
z"/>
<path fill="#000000" opacity="1.000000" stroke="none" 
	d="
M523.595093,468.136169 
	C546.542480,476.989868 561.010254,497.720154 561.339478,521.866089 
	C561.450623,530.019714 561.861755,538.204041 559.331909,546.137817 
	C558.737610,548.001587 558.579102,550.057190 556.907410,551.816956 
	C552.748474,550.811401 549.280457,548.114563 545.359741,546.461670 
	C540.913086,544.587036 536.543579,542.518555 532.044800,540.782654 
	C529.393677,539.759827 528.425110,538.420471 529.195618,535.506714 
	C531.405762,527.148926 530.328003,518.999268 526.870178,511.171051 
	C520.987610,497.853424 506.922791,490.275116 493.082977,492.844604 
	C477.305389,495.773865 467.242889,506.691223 466.374756,522.083740 
	C466.122772,526.551025 465.868469,531.060181 467.058014,535.502502 
	C467.628540,537.633240 467.824921,539.686218 465.000549,540.815735 
	C456.145447,544.356995 447.931458,549.094727 440.169952,554.628235 
	C439.353973,555.210022 438.458252,555.697327 437.338257,555.179321 
	C436.207977,553.747437 436.686584,552.022827 436.685577,550.413391 
	C436.660309,510.090454 436.660126,469.767548 436.668304,429.444611 
	C436.669617,422.830353 436.697144,422.818542 443.342224,422.798584 
	C449.507263,422.780090 455.680420,422.981598 461.834656,422.722168 
	C466.062958,422.543945 467.318176,424.280579 467.281372,428.304688 
	C467.150208,442.632782 467.274109,456.963226 467.300415,471.292786 
	C467.303711,473.092316 467.300842,474.891815 467.300842,477.941559 
	C484.868378,464.904053 503.385956,462.230560 523.595093,468.136169 
z"/>
<path fill="#000000" opacity="1.000000" stroke="none" 
	d="
M543.079956,573.081787 
	C532.536438,582.962952 520.311768,587.751892 506.266663,588.345764 
	C492.279633,588.937195 479.579712,585.564941 468.861542,576.591919 
	C468.166107,577.084290 467.722809,577.228699 467.674438,577.456848 
	C465.841187,586.104553 465.846069,586.115601 456.842987,586.134094 
	C451.681671,586.144714 446.518677,586.033813 441.359528,586.135376 
	C438.073334,586.200073 436.321411,585.092896 436.605499,581.507446 
	C436.789001,579.191284 437.014618,576.771851 436.564301,574.530701 
	C434.778412,565.642273 438.771179,560.393860 446.403717,556.400757 
	C452.880951,553.012146 459.142700,549.202576 465.792480,546.107300 
	C468.613220,544.794373 470.386017,545.047791 472.414948,547.847473 
	C485.344086,565.688416 511.051758,565.736145 524.002808,547.982483 
	C525.870239,545.422485 527.468201,544.526184 530.569641,545.700745 
	C537.753296,548.421204 544.648682,551.658630 551.298279,555.509644 
	C554.064636,557.111694 554.109253,558.638000 552.561401,561.086670 
	C549.880615,565.327576 546.956543,569.347412 543.079956,573.081787 
z"/>
<path fill="#000000" opacity="1.000000" stroke="none" 
	d="
M685.692017,437.267670 
	C683.072510,432.888611 679.685547,429.371796 678.059631,424.823486 
	C679.829285,423.120941 681.748962,423.709869 683.479065,423.703735 
	C698.963379,423.648926 714.448853,423.748718 729.931763,423.589508 
	C733.143372,423.556458 735.131714,424.584656 736.878357,427.261871 
	C742.879944,436.461090 749.026001,445.569031 755.281189,454.597992 
	C757.163818,457.315552 757.215332,459.342316 755.211243,462.144470 
	C747.467163,472.972351 740.028931,484.018616 732.422668,494.945831 
	C731.308472,496.546478 730.473816,498.459747 727.680298,499.770142 
	C713.786499,479.094452 699.835388,458.333435 685.692017,437.267670 
z"/>
<path fill="#000000" opacity="1.000000" stroke="none" 
	d="
M588.931396,586.239502 
	C583.786926,586.243958 579.126160,586.152466 574.471497,586.279785 
	C571.375732,586.364502 569.721741,585.284302 569.925171,581.980957 
	C570.187744,577.716919 569.613586,573.390198 570.584473,569.131836 
	C572.756897,569.623962 596.661194,583.452087 598.706970,585.409241 
	C595.568848,586.867065 592.419312,585.970886 588.931396,586.239502 
z"/>
</svg>